#!OML:ASF F:\VICON\USERDATA\INSTALL\rory3\rory3.ASF
:FULLY-SPECIFIED
:DEGREES
936
root 0.895617 15.3789 4.1309 10.6892 -49.5669 13.7537
lowerback 4.24084 9.00343 7.91827
upperback 5.55854 12.2155 -4.09855
thorax 6.13881 6.62463 -8.30404
lowerneck -1.54494 -5.11714 -5.34275
upperneck 51.8561 -13.8094 10.1755
head 24.8005 -5.51964 4.43435
rclavicle 1.03368e-014 -9.54166e-015
rhumerus -48.5413 54.5677 -131.098
rradius 91.2301
rwrist -27.0789
rhand 26.5925 -27.0794
rfingers 7.12502
rthumb 50.6191 -47.9709
lclavicle 1.03368e-014 -9.54166e-015
lhumerus -9.33407 -77.9591 89.698
lradius 100.706
lwrist 29.9398
lhand -1.82841 -19.6202
lfingers 7.12502
lthumb 23.838 8.92072
rfemur -66.9814 -7.83199 8.57236
rtibia 88.0204
rfoot -11.8798 -14.0308
rtoes -27.416
lfemur -57.0158 -22.6819 -30.1395
ltibia 61.8688
lfoot -23.4686 5.77783
ltoes 11.9047
937
root 0.888998 15.3839 4.15775 10.2935 -49.7475 14.1642
lowerback 3.97216 9.07304 7.70823
upperback 5.70936 12.2956 -4.22742
thorax 6.45583 6.67551 -8.26056
lowerneck -1.6346 -5.11361 -5.34772
upperneck 51.8055 -13.8422 10.2845
head 24.8261 -5.52468 4.48904
rclavicle -1.26427e-013 -1.59028e-014
rhumerus -48.3906 54.5701 -131.044
rradius 91.2197
rwrist -27.028
rhand 26.587 -27.2046
rfingers 7.12502
rthumb 50.614 -48.0989
lclavicle -1.26427e-013 -1.59028e-014
lhumerus -8.82164 -78.0173 89.1376
lradius 100.665
lwrist 29.7416
lhand -2.69439 -19.8682
lfingers 7.12502
lthumb 23.0072 8.77866
rfemur -66.7407 -7.93611 8.20769
rtibia 87.958
rfoot -12.0876 -13.9137
rtoes -27.5959
lfemur -56.6863 -22.8086 -30.5489
ltibia 61.7624
lfoot -23.4551 6.17265
ltoes 11.3974
938
root 0.886039 15.3832 4.16917 10.1413 -49.8007 14.3451
lowerback 3.84957 9.11761 7.55895
upperback 5.78945 12.3505 -4.31472
thorax 6.61173 6.70681 -8.23984
lowerneck -1.79378 -5.16223 -5.26049
upperneck 51.7231 -13.9756 10.3881
head 24.8555 -5.54512 4.4957
rclavicle -7.07673e-014 -3.18055e-015
rhumerus -47.8025 54.6931 -130.701
rradius 91.0492
rwrist -27.0068
rhand 26.278 -27.1657
rfingers 7.12502
rthumb 50.3318 -48.2125
lclavicle -7.07673e-014 -3.18055e-015
lhumerus -7.86913 -78.0087 88.1705
lradius 100.605
lwrist 29.4586
lhand -2.6193 -20.2286
lfingers 7.12502
lthumb 23.0793 8.40921
rfemur -66.6654 -7.97934 8.057
rtibia 87.9556
rfoot -12.3262 -13.8016
rtoes -27.6206
lfemur -56.5701 -22.8907 -30.6937
ltibia 61.6762
lfoot -23.4591 6.20342
ltoes 11.6907
939
root 0.888567 15.3801 4.16413 10.115 -49.7757 14.4022
lowerback 3.93132 9.09324 7.42925
upperback 5.81209 12.3211 -4.36878
thorax 6.56711 6.68714 -8.24424
lowerneck -1.92553 -5.14338 -5.14166
upperneck 51.6473 -13.9661 10.419
head 24.8058 -5.5101 4.47754
rclavicle -2.38542e-015 1.59028e-014
rhumerus -46.8447 55.0801 -130.198
rradius 90.6975
rwrist -27.32
rhand 26.2965 -27.4496
rfingers 7.12502
rthumb 50.3488 -48.4873
lclavicle -2.38542e-015 1.59028e-014
lhumerus -7.01103 -77.9527 87.305
lradius 100.585
lwrist 29.4088
lhand -2.74218 -20.5605
lfingers 7.12502
lthumb 22.9614 8.09211
rfemur -66.727 -7.92421 8.01828
rtibia 87.9886
rfoot -12.7041 -13.7806
rtoes -26.5438
lfemur -56.6318 -22.821 -30.718
ltibia 61.6449
lfoot -23.4202 6.13411
ltoes 11.7629
940
root 0.8906 15.3827 4.16876 10.0115 -49.8146 14.5294
lowerback 3.93855 9.11512 7.35839
upperback 5.84861 12.3535 -4.45607
thorax 6.6159 6.70706 -8.29399
lowerneck -1.97149 -5.07435 -4.98165
upperneck 51.6398 -13.8416 10.3606
head 24.7305 -5.43054 4.42812
rclavicle -2.94201e-014 -3.18055e-014
rhumerus -47.4659 54.8268 -130.646
rradius 90.9432
rwrist -27.0453
rhand 26.0802 -27.2523
rfingers 7.12502
rthumb 50.151 -48.3954
lclavicle -2.94201e-014 -3.18055e-014
lhumerus -6.4738 -78.1147 86.7419
lradius 100.574
lwrist 29.4771
lhand -3.59457 -20.8637
lfingers 7.12502
lthumb 22.1432 7.88821
rfemur -66.6838 -7.9218 7.89559
rtibia 87.9717
rfoot -13.0571 -13.8333
rtoes -25.3009
lfemur -56.6083 -22.7491 -30.866
ltibia 61.6871
lfoot -23.4658 6.23736
ltoes 11.5469
